# xmcd
#
# Track frame offsets: 
#        150
#        15347
#        27520
#        43771
#        62715
#        82884
#        108439
#        124601
#
# Disc length: 1976 seconds
#
# Revision: 0
# Processed by: cddbd v1.5.2PL0 Copyright (c) Steve Scherf et al.
# Submitted via: ExactAudioCopy v1.0b3
#
DISCID=5b07b608
DTITLE=Various Artist - 幻の名盤解放集13 特典音盤
DYEAR=2005
DGENRE=Japan-Pops
TTITLE0=Soul Flower Union - ラリラリ東京
TTITLE1=ペーソス - ニャオニャオ甘えて
TTITLE2=ペーソス - おじさまいや？
TTITLE3=町田謙介 - トラッローリング・ストーンズは来なかったク04
TTITLE4=カオリーニョ藤原と彼のボサノムーチョ - まぼろしのブルース
TTITLE5=ダンボール・バット - 海猫
TTITLE6=刃頭 The 最狂音術師 - トラック0呑む、鬱、買う（野坂昭如）Remix7
TTITLE7=ジム・オルーク - 楢山節考
EXTD=
EXTT0=
EXTT1=
EXTT2=
EXTT3=
EXTT4=
EXTT5=
EXTT6=
EXTT7=
PLAYORDER=
